<svg width="1199" height="389" viewBox="0 0 1199 389" fill="none" xmlns="http://www.w3.org/2000/svg">
<path d="M437.907 54.8114C473.864 54.8114 507.676 69.4826 533.101 96.1386C558.527 122.784 572.536 158.218 572.536 195.901C572.536 233.584 558.537 269.017 533.101 295.663C507.676 322.309 473.864 336.99 437.907 336.99C401.95 336.99 368.139 322.319 342.713 295.663C317.288 269.017 303.278 233.584 303.278 195.901C303.278 158.218 317.278 122.784 342.713 96.1386C368.139 69.493 401.95 54.8114 437.907 54.8114ZM437.907 52.7289C362.455 52.7289 301.291 116.828 301.291 195.901C301.291 274.973 362.455 339.073 437.907 339.073C513.359 339.073 574.523 274.973 574.523 195.901C574.523 116.828 513.359 52.7289 437.907 52.7289Z" fill="#AFAFAF"/>
<path d="M636.621 54.8114C672.579 54.8114 706.39 69.4826 731.816 96.1386C757.241 122.784 771.25 158.218 771.25 195.901C771.25 233.584 757.251 269.017 731.816 295.663C706.39 322.309 672.579 336.99 636.621 336.99C600.664 336.99 566.853 322.319 541.427 295.663C516.002 269.017 501.993 233.584 501.993 195.901C501.993 158.218 515.992 122.784 541.427 96.1386C566.853 69.493 600.664 54.8114 636.621 54.8114ZM636.621 52.7289C561.17 52.7289 500.005 116.828 500.005 195.901C500.005 274.973 561.17 339.073 636.621 339.073C712.073 339.073 773.238 274.973 773.238 195.901C773.238 116.828 712.073 52.7289 636.621 52.7289Z" fill="#AFAFAF"/>
<path d="M810.496 54.8114C846.454 54.8114 880.265 69.4826 905.691 96.1386C931.116 122.784 945.125 158.218 945.125 195.901C945.125 233.584 931.126 269.017 905.691 295.663C880.265 322.309 846.454 336.99 810.496 336.99C774.539 336.99 740.728 322.319 715.302 295.663C689.877 269.017 675.868 233.584 675.868 195.901C675.868 158.218 689.867 122.784 715.302 96.1386C740.728 69.493 774.539 54.8114 810.496 54.8114ZM810.496 52.7289C735.045 52.7289 673.88 116.828 673.88 195.901C673.88 274.973 735.045 339.073 810.496 339.073C885.948 339.073 947.113 274.973 947.113 195.901C947.113 116.828 885.948 52.7289 810.496 52.7289Z" fill="#AFAFAF"/>
<path d="M1058.89 54.8114C1094.85 54.8114 1128.66 69.4826 1154.08 96.1386C1179.51 122.784 1193.52 158.218 1193.52 195.901C1193.52 233.584 1179.52 269.017 1154.08 295.663C1128.66 322.309 1094.85 336.99 1058.89 336.99C1022.93 336.99 989.12 322.319 963.695 295.663C938.269 269.017 924.26 233.584 924.26 195.901C924.26 158.218 938.259 122.784 963.695 96.1386C989.12 69.493 1022.93 54.8114 1058.89 54.8114ZM1058.89 52.7289C983.437 52.7289 922.273 116.828 922.273 195.901C922.273 274.973 983.437 339.073 1058.89 339.073C1134.34 339.073 1195.51 274.973 1195.51 195.901C1195.51 116.828 1134.34 52.7289 1058.89 52.7289Z" fill="#AFAFAF"/>
<path d="M628.772 52.7289C708.655 52.7289 772.999 119.161 772.999 201.055V339.073H723.072V201.055C723.072 147.222 681.471 102.553 628.772 102.553H599.372V339.073H549.445V52.7289H628.772ZM628.772 49.6051H546.464V342.196H602.353V105.676H628.772C653.333 105.676 676.344 115.672 693.573 133.821C710.672 151.835 720.091 175.711 720.091 201.055V342.196H775.979V201.055C775.979 160.571 760.688 122.534 732.928 93.9519C705.158 65.3488 668.167 49.6051 628.772 49.6051Z" fill="black"/>
<path d="M802.647 52.7289C882.53 52.7289 946.874 119.161 946.874 201.055V339.073H896.947V201.055C896.947 147.222 855.346 102.553 802.647 102.553H773.247V339.073H723.32V52.7289H802.647ZM802.647 49.6051H720.339V342.196H776.228V105.676H802.647C827.208 105.676 850.219 115.672 867.448 133.821C884.547 151.835 893.966 175.711 893.966 201.055V342.196H949.854V201.055C949.854 160.571 934.563 122.534 906.803 93.9519C879.033 65.3488 842.042 49.6051 802.647 49.6051Z" fill="black"/>
<path d="M1051.04 52.7289C1130.92 52.7289 1195.27 119.161 1195.27 201.055V339.073H1145.34V201.055C1145.34 147.222 1103.74 102.553 1051.04 102.553H1021.64V339.073H971.713V52.7289H1051.04ZM1051.04 49.6051H968.732V342.196H1024.62V105.676H1051.04C1075.6 105.676 1098.61 115.672 1115.84 133.821C1132.94 151.835 1142.36 175.711 1142.36 201.055V342.196H1198.25V201.055C1198.25 160.571 1182.96 122.534 1155.2 93.9519C1127.43 65.3488 1090.43 49.6051 1051.04 49.6051Z" fill="black"/>
<path d="M139.597 52.7289C215.049 52.7289 276.213 116.828 276.213 195.901C276.213 274.973 215.049 339.073 139.597 339.073C64.145 339.073 2.98071 274.973 2.98071 195.901C2.98071 116.828 64.145 52.7289 139.597 52.7289ZM139.597 49.6051C102.308 49.6051 67.2549 64.8178 40.8855 92.4525C14.5161 120.087 0 156.823 0 195.901C0 234.979 14.5161 271.714 40.8855 299.349C67.2549 326.984 102.308 342.196 139.597 342.196C176.886 342.196 211.939 326.984 238.308 299.349C264.677 271.714 279.194 234.979 279.194 195.901C279.194 156.823 264.677 120.087 238.308 92.4525C211.939 64.8178 176.886 49.6051 139.597 49.6051Z" fill="black"/>
<path d="M139.596 100.637C189.802 100.637 230.498 143.286 230.498 195.901C230.498 248.515 189.802 291.165 139.596 291.165C89.3913 291.165 48.6946 248.515 48.6946 195.901C48.6946 143.286 89.3913 100.637 139.596 100.637ZM139.596 97.5131C87.8314 97.5131 45.7139 141.652 45.7139 195.901C45.7139 250.15 87.8314 294.288 139.596 294.288C191.361 294.288 233.479 250.15 233.479 195.901C233.479 141.652 191.361 97.5131 139.596 97.5131Z" fill="black"/>
<path d="M524.606 52.7289V339.073H445.279C365.396 339.073 301.052 272.641 301.052 190.747V52.7289H350.979V190.747C350.979 244.579 392.58 289.249 445.279 289.249H474.679V52.7289H524.606ZM527.587 49.6051H471.698V286.125H445.279C420.718 286.125 397.707 276.129 380.479 257.98C363.379 239.966 353.96 216.091 353.96 190.747V49.6051H298.072V190.747C298.072 231.23 313.363 269.267 341.123 297.85C368.894 326.453 405.884 342.196 445.279 342.196H527.587V49.6051Z" fill="black"/>
<path d="M524.845 365.104H301.291" stroke="#AFAFAF" stroke-width="2" stroke-miterlimit="10"/>
<path d="M301.291 357.451V372.757" stroke="#AFAFAF" stroke-width="2" stroke-miterlimit="10"/>
<path d="M524.844 357.451V372.757" stroke="#AFAFAF" stroke-width="2" stroke-miterlimit="10"/>
<path d="M409.979 378.409L411.547 381.086L413.115 378.409H414.275L412.161 381.682L414.275 384.955H413.115L411.547 382.415L409.979 384.955H408.82L410.9 381.682L408.82 378.409H409.979Z" fill="#AFAFAF"/>
<path d="M946.914 26.4061H549.485" stroke="#AFAFAF" stroke-width="2" stroke-miterlimit="10"/>
<path d="M549.445 18.7424V34.0384" stroke="#AFAFAF" stroke-width="2" stroke-miterlimit="10"/>
<path d="M946.874 18.7424V34.0384" stroke="#AFAFAF" stroke-width="2" stroke-miterlimit="10"/>
<path d="M737.468 12V11.233L740.349 8.07955C740.687 7.71023 740.965 7.3892 741.184 7.11648C741.403 6.84091 741.564 6.58239 741.67 6.34091C741.778 6.09659 741.831 5.84091 741.831 5.57386C741.831 5.26705 741.758 5.00142 741.61 4.77699C741.465 4.55256 741.266 4.37926 741.013 4.2571C740.76 4.13494 740.476 4.07386 740.161 4.07386C739.826 4.07386 739.533 4.14347 739.283 4.28267C739.036 4.41903 738.844 4.6108 738.708 4.85795C738.574 5.10511 738.508 5.39489 738.508 5.72727H737.502C737.502 5.21591 737.62 4.76705 737.856 4.38068C738.091 3.99432 738.412 3.69318 738.819 3.47727C739.228 3.26136 739.687 3.15341 740.195 3.15341C740.706 3.15341 741.16 3.26136 741.555 3.47727C741.949 3.69318 742.259 3.98437 742.483 4.35085C742.708 4.71733 742.82 5.125 742.82 5.57386C742.82 5.89489 742.762 6.20881 742.645 6.51562C742.532 6.8196 742.333 7.15909 742.049 7.53409C741.768 7.90625 741.377 8.3608 740.877 8.89773L738.917 10.9943V11.0625H742.974V12H737.468ZM745.501 5.45455L747.069 8.13068L748.637 5.45455H749.796L747.682 8.72727L749.796 12H748.637L747.069 9.46023L745.501 12H744.341L746.421 8.72727L744.341 5.45455H745.501Z" fill="#AFAFAF"/>
<path d="M1195.27 365.104H971.713" stroke="#AFAFAF" stroke-width="2" stroke-miterlimit="10"/>
<path d="M971.713 357.451V372.757" stroke="#AFAFAF" stroke-width="2" stroke-miterlimit="10"/>
<path d="M1195.27 357.451V372.757" stroke="#AFAFAF" stroke-width="2" stroke-miterlimit="10"/>
<path d="M1080.4 378.409L1081.97 381.086L1083.54 378.409H1084.7L1082.58 381.682L1084.7 384.955H1083.54L1081.97 382.415L1080.4 384.955H1079.24L1081.32 381.682L1079.24 378.409H1080.4Z" fill="#AFAFAF"/>
</svg>
