<svg xmlns="http://www.w3.org/2000/svg" width="755" height="563" fill="none" viewBox="0 0 755 563"><path stroke="#e5e5e5" stroke-miterlimit="10" stroke-width=".5" d="M12.25-9.75H-29V31.5h41.25zM53.5-9.75H12.25V31.5H53.5zM94.75-9.75H53.5V31.5h41.25zM136-9.75H94.75V31.5H136zM177.25-9.75H136V31.5h41.25zM218.5-9.75h-41.25V31.5h41.25zM259.75-9.75H218.5V31.5h41.25zM301-9.75h-41.25V31.5H301zM342.25-9.75H301V31.5h41.25zM383.5-9.75h-41.25V31.5h41.25zM424.75-9.75H383.5V31.5h41.25zM466-9.75h-41.25V31.5H466zM507.25-9.75H466V31.5h41.25zM548.5-9.75h-41.25V31.5h41.25zM589.75-9.75H548.5V31.5h41.25zM631-9.75h-41.25V31.5H631zM672.25-9.75H631V31.5h41.25zM713.5-9.75h-41.25V31.5h41.25zM754.75-9.75H713.5V31.5h41.25zM796-9.75h-41.25V31.5H796zM12.25 31.5H-29v41.25h41.25zM53.5 31.5H12.25v41.25H53.5zM94.75 31.5H53.5v41.25h41.25zM136 31.5H94.75v41.25H136zM177.25 31.5H136v41.25h41.25zM218.5 31.5h-41.25v41.25h41.25zM259.75 31.5H218.5v41.25h41.25zM301 31.5h-41.25v41.25H301zM342.25 31.5H301v41.25h41.25zM383.5 31.5h-41.25v41.25h41.25zM424.75 31.5H383.5v41.25h41.25zM466 31.5h-41.25v41.25H466zM507.25 31.5H466v41.25h41.25zM548.5 31.5h-41.25v41.25h41.25zM589.75 31.5H548.5v41.25h41.25zM631 31.5h-41.25v41.25H631zM672.25 31.5H631v41.25h41.25zM713.5 31.5h-41.25v41.25h41.25zM754.75 31.5H713.5v41.25h41.25zM796 31.5h-41.25v41.25H796zM12.25 72.75H-29V114h41.25zM53.5 72.75H12.25V114H53.5zM94.75 72.75H53.5V114h41.25zM136 72.75H94.75V114H136zM177.25 72.75H136V114h41.25zM218.5 72.75h-41.25V114h41.25zM259.75 72.75H218.5V114h41.25zM301 72.75h-41.25V114H301zM342.25 72.75H301V114h41.25zM383.5 72.75h-41.25V114h41.25zM424.75 72.75H383.5V114h41.25zM466 72.75h-41.25V114H466zM507.25 72.75H466V114h41.25zM548.5 72.75h-41.25V114h41.25zM589.75 72.75H548.5V114h41.25zM631 72.75h-41.25V114H631zM672.25 72.75H631V114h41.25zM713.5 72.75h-41.25V114h41.25zM754.75 72.75H713.5V114h41.25zM796 72.75h-41.25V114H796zM12.25 114H-29v41.25h41.25zM53.5 114H12.25v41.25H53.5zM94.75 114H53.5v41.25h41.25zM136 114H94.75v41.25H136zM177.25 114H136v41.25h41.25zM218.5 114h-41.25v41.25h41.25zM259.75 114H218.5v41.25h41.25zM301 114h-41.25v41.25H301zM342.25 114H301v41.25h41.25zM383.5 114h-41.25v41.25h41.25zM424.75 114H383.5v41.25h41.25zM466 114h-41.25v41.25H466zM507.25 114H466v41.25h41.25zM548.5 114h-41.25v41.25h41.25zM589.75 114H548.5v41.25h41.25zM631 114h-41.25v41.25H631zM672.25 114H631v41.25h41.25zM713.5 114h-41.25v41.25h41.25zM754.75 114H713.5v41.25h41.25zM796 114h-41.25v41.25H796zM12.25 155.25H-29v41.25h41.25zM53.5 155.25H12.25v41.25H53.5zM94.75 155.25H53.5v41.25h41.25zM136 155.25H94.75v41.25H136zM177.25 155.25H136v41.25h41.25zM218.5 155.25h-41.25v41.25h41.25zM259.75 155.25H218.5v41.25h41.25zM301 155.25h-41.25v41.25H301zM342.25 155.25H301v41.25h41.25zM383.5 155.25h-41.25v41.25h41.25zM424.75 155.25H383.5v41.25h41.25zM466 155.25h-41.25v41.25H466zM507.25 155.25H466v41.25h41.25zM548.5 155.25h-41.25v41.25h41.25zM589.75 155.25H548.5v41.25h41.25zM631 155.25h-41.25v41.25H631zM672.25 155.25H631v41.25h41.25zM713.5 155.25h-41.25v41.25h41.25zM754.75 155.25H713.5v41.25h41.25zM796 155.25h-41.25v41.25H796zM12.25 196.5H-29v41.25h41.25zM53.5 196.5H12.25v41.25H53.5zM94.75 196.5H53.5v41.25h41.25zM136 196.5H94.75v41.25H136zM177.25 196.5H136v41.25h41.25zM218.5 196.5h-41.25v41.25h41.25zM259.75 196.5H218.5v41.25h41.25zM301 196.5h-41.25v41.25H301zM342.25 196.5H301v41.25h41.25zM383.5 196.5h-41.25v41.25h41.25zM424.75 196.5H383.5v41.25h41.25zM466 196.5h-41.25v41.25H466zM507.25 196.5H466v41.25h41.25zM548.5 196.5h-41.25v41.25h41.25zM589.75 196.5H548.5v41.25h41.25zM631 196.5h-41.25v41.25H631zM672.25 196.5H631v41.25h41.25zM713.5 196.5h-41.25v41.25h41.25zM754.75 196.5H713.5v41.25h41.25zM796 196.5h-41.25v41.25H796zM12.25 237.75H-29V279h41.25zM53.5 237.75H12.25V279H53.5zM94.75 237.75H53.5V279h41.25zM136 237.75H94.75V279H136zM177.25 237.75H136V279h41.25zM218.5 237.75h-41.25V279h41.25zM259.75 237.75H218.5V279h41.25zM301 237.75h-41.25V279H301zM342.25 237.75H301V279h41.25zM383.5 237.75h-41.25V279h41.25zM424.75 237.75H383.5V279h41.25zM466 237.75h-41.25V279H466zM507.25 237.75H466V279h41.25zM548.5 237.75h-41.25V279h41.25zM589.75 237.75H548.5V279h41.25zM631 237.75h-41.25V279H631zM672.25 237.75H631V279h41.25zM713.5 237.75h-41.25V279h41.25zM754.75 237.75H713.5V279h41.25zM796 237.75h-41.25V279H796zM12.25 279H-29v41.25h41.25zM53.5 279H12.25v41.25H53.5zM94.75 279H53.5v41.25h41.25zM136 279H94.75v41.25H136zM177.25 279H136v41.25h41.25zM218.5 279h-41.25v41.25h41.25zM259.75 279H218.5v41.25h41.25zM301 279h-41.25v41.25H301zM342.25 279H301v41.25h41.25zM383.5 279h-41.25v41.25h41.25zM424.75 279H383.5v41.25h41.25zM466 279h-41.25v41.25H466zM507.25 279H466v41.25h41.25zM548.5 279h-41.25v41.25h41.25zM589.75 279H548.5v41.25h41.25zM631 279h-41.25v41.25H631zM672.25 279H631v41.25h41.25zM713.5 279h-41.25v41.25h41.25zM754.75 279H713.5v41.25h41.25zM796 279h-41.25v41.25H796zM12.25 320.25H-29v41.25h41.25zM53.5 320.25H12.25v41.25H53.5zM94.75 320.25H53.5v41.25h41.25zM136 320.25H94.75v41.25H136zM177.25 320.25H136v41.25h41.25zM218.5 320.25h-41.25v41.25h41.25zM259.75 320.25H218.5v41.25h41.25zM301 320.25h-41.25v41.25H301zM342.25 320.25H301v41.25h41.25zM383.5 320.25h-41.25v41.25h41.25zM424.75 320.25H383.5v41.25h41.25zM466 320.25h-41.25v41.25H466zM507.25 320.25H466v41.25h41.25zM548.5 320.25h-41.25v41.25h41.25zM589.75 320.25H548.5v41.25h41.25zM631 320.25h-41.25v41.25H631zM672.25 320.25H631v41.25h41.25zM713.5 320.25h-41.25v41.25h41.25zM754.75 320.25H713.5v41.25h41.25zM796 320.25h-41.25v41.25H796zM12.25 361.5H-29v41.25h41.25zM53.5 361.5H12.25v41.25H53.5zM94.75 361.5H53.5v41.25h41.25zM136 361.5H94.75v41.25H136zM177.25 361.5H136v41.25h41.25zM218.5 361.5h-41.25v41.25h41.25zM259.75 361.5H218.5v41.25h41.25zM301 361.5h-41.25v41.25H301zM342.25 361.5H301v41.25h41.25zM383.5 361.5h-41.25v41.25h41.25zM424.75 361.5H383.5v41.25h41.25zM466 361.5h-41.25v41.25H466zM507.25 361.5H466v41.25h41.25zM548.5 361.5h-41.25v41.25h41.25zM589.75 361.5H548.5v41.25h41.25zM631 361.5h-41.25v41.25H631zM672.25 361.5H631v41.25h41.25zM713.5 361.5h-41.25v41.25h41.25zM754.75 361.5H713.5v41.25h41.25zM796 361.5h-41.25v41.25H796zM12.25 402.75H-29V444h41.25zM53.5 402.75H12.25V444H53.5zM94.75 402.75H53.5V444h41.25zM136 402.75H94.75V444H136zM177.25 402.75H136V444h41.25zM218.5 402.75h-41.25V444h41.25zM259.75 402.75H218.5V444h41.25zM301 402.75h-41.25V444H301zM342.25 402.75H301V444h41.25zM383.5 402.75h-41.25V444h41.25zM424.75 402.75H383.5V444h41.25zM466 402.75h-41.25V444H466zM507.25 402.75H466V444h41.25zM548.5 402.75h-41.25V444h41.25zM589.75 402.75H548.5V444h41.25zM631 402.75h-41.25V444H631zM672.25 402.75H631V444h41.25zM713.5 402.75h-41.25V444h41.25zM754.75 402.75H713.5V444h41.25zM796 402.75h-41.25V444H796zM12.25 444H-29v41.25h41.25zM53.5 444H12.25v41.25H53.5zM94.75 444H53.5v41.25h41.25zM136 444H94.75v41.25H136zM177.25 444H136v41.25h41.25zM218.5 444h-41.25v41.25h41.25zM259.75 444H218.5v41.25h41.25zM301 444h-41.25v41.25H301zM342.25 444H301v41.25h41.25zM383.5 444h-41.25v41.25h41.25zM424.75 444H383.5v41.25h41.25zM466 444h-41.25v41.25H466zM507.25 444H466v41.25h41.25zM548.5 444h-41.25v41.25h41.25zM589.75 444H548.5v41.25h41.25zM631 444h-41.25v41.25H631zM672.25 444H631v41.25h41.25zM713.5 444h-41.25v41.25h41.25zM754.75 444H713.5v41.25h41.25zM796 444h-41.25v41.25H796zM12.25 485.25H-29v41.25h41.25zM53.5 485.25H12.25v41.25H53.5zM94.75 485.25H53.5v41.25h41.25zM136 485.25H94.75v41.25H136zM177.25 485.25H136v41.25h41.25zM218.5 485.25h-41.25v41.25h41.25zM259.75 485.25H218.5v41.25h41.25zM301 485.25h-41.25v41.25H301zM342.25 485.25H301v41.25h41.25zM383.5 485.25h-41.25v41.25h41.25zM424.75 485.25H383.5v41.25h41.25zM466 485.25h-41.25v41.25H466zM507.25 485.25H466v41.25h41.25zM548.5 485.25h-41.25v41.25h41.25zM589.75 485.25H548.5v41.25h41.25zM631 485.25h-41.25v41.25H631zM672.25 485.25H631v41.25h41.25zM713.5 485.25h-41.25v41.25h41.25zM754.75 485.25H713.5v41.25h41.25zM796 485.25h-41.25v41.25H796zM12.25 526.5H-29v41.25h41.25zM53.5 526.5H12.25v41.25H53.5zM94.75 526.5H53.5v41.25h41.25zM136 526.5H94.75v41.25H136zM177.25 526.5H136v41.25h41.25zM218.5 526.5h-41.25v41.25h41.25zM259.75 526.5H218.5v41.25h41.25zM301 526.5h-41.25v41.25H301zM342.25 526.5H301v41.25h41.25zM383.5 526.5h-41.25v41.25h41.25zM424.75 526.5H383.5v41.25h41.25zM466 526.5h-41.25v41.25H466zM507.25 526.5H466v41.25h41.25zM548.5 526.5h-41.25v41.25h41.25zM589.75 526.5H548.5v41.25h41.25zM631 526.5h-41.25v41.25H631zM672.25 526.5H631v41.25h41.25zM713.5 526.5h-41.25v41.25h41.25zM754.75 526.5H713.5v41.25h41.25zM796 526.5h-41.25v41.25H796z"/><path fill="#afafaf" d="M74.125 76.05c59.714 0 115.863 23.249 158.086 65.489 42.224 42.223 65.489 98.372 65.489 158.086s-23.249 115.863-65.489 158.086C189.988 499.935 133.839 523.2 74.125 523.2c-59.713 0-115.863-23.249-158.086-65.489-42.224-42.223-65.489-98.372-65.489-158.086s23.249-115.863 65.488-158.086C-41.738 99.315 14.412 76.05 74.125 76.05m0-3.3c-125.301 0-226.875 101.574-226.875 226.875S-51.176 526.5 74.125 526.5 301 424.926 301 299.625 199.426 72.75 74.125 72.75"/><path fill="#afafaf" d="M404.125 76.05c59.714 0 115.863 23.249 158.086 65.489 42.224 42.223 65.489 98.372 65.489 158.086s-23.249 115.863-65.489 158.086c-42.223 42.224-98.372 65.489-158.086 65.489s-115.863-23.249-158.086-65.489c-42.224-42.223-65.489-98.372-65.489-158.086s23.249-115.863 65.489-158.086c42.223-42.224 98.372-65.489 158.086-65.489m0-3.3c-125.301 0-226.875 101.574-226.875 226.875S278.824 526.5 404.125 526.5 631 424.926 631 299.625 529.426 72.75 404.125 72.75"/><path fill="#afafaf" d="M692.875 76.05c59.714 0 115.863 23.249 158.086 65.489 42.224 42.223 65.489 98.372 65.489 158.086s-23.249 115.863-65.489 158.086c-42.223 42.224-98.372 65.489-158.086 65.489s-115.863-23.249-158.086-65.489c-42.224-42.223-65.489-98.372-65.489-158.086s23.249-115.863 65.489-158.086c42.223-42.224 98.372-65.489 158.086-65.489m0-3.3C567.574 72.75 466 174.324 466 299.625S567.574 526.5 692.875 526.5 919.75 424.926 919.75 299.625 818.176 72.75 692.875 72.75"/><path fill="#000" d="M391.09 72.75c132.66 0 239.514 105.27 239.514 235.043V526.5h-82.913V307.793c0-85.305-69.085-156.091-156.601-156.091h-48.824V526.5h-82.912V72.75zm0-4.95H254.404v463.65h92.812V156.652h43.874c40.788 0 79.002 15.84 107.613 44.6 28.396 28.545 44.038 66.38 44.038 106.541V531.45h92.813V307.793c0-64.152-25.394-124.427-71.495-169.72C517.942 92.748 456.512 67.8 391.09 67.8"/><path fill="#000" d="M679.84 72.75c132.66 0 239.514 105.27 239.514 235.043V526.5h-82.913V307.793c0-85.305-69.085-156.091-156.601-156.091h-48.824V526.5h-82.912V72.75zm0-4.95H543.154v463.65h92.812V156.652h43.874c40.788 0 79.002 15.84 107.613 44.6 28.396 28.545 44.038 66.38 44.038 106.541V531.45h92.813V307.793c0-64.152-25.394-124.427-71.495-169.72C806.692 92.748 745.262 67.8 679.84 67.8M218.104 72.75V526.5H86.368c-132.66 0-239.514-105.27-239.514-235.043V72.75h82.912v218.707c0 85.305 69.086 156.09 156.602 156.09h48.823V72.75zm4.95-4.95h-92.813v374.797H86.368c-40.788 0-79.002-15.84-107.613-44.599-28.397-28.545-44.039-66.38-44.039-106.541V67.8h-92.812v223.657c0 64.152 25.393 124.427 71.494 169.719 46.118 45.326 107.547 70.274 172.97 70.274h136.686z"/><path stroke="#afafaf" stroke-miterlimit="10" stroke-width="2" d="M218.5 555.623v24.254M919.42 31.038h-660M259.354 18.894v24.239"/><path fill="#afafaf" d="M571.002 1.194V.427l2.88-3.153q.507-.554.835-.964.328-.413.486-.775.162-.366.162-.767 0-.46-.221-.797a1.44 1.44 0 0 0-.597-.52 1.9 1.9 0 0 0-.852-.183q-.503 0-.878.209a1.44 1.44 0 0 0-.575.575 1.8 1.8 0 0 0-.201.87h-1.005q0-.768.353-1.347a2.46 2.46 0 0 1 .963-.904 2.9 2.9 0 0 1 1.377-.324q.766 0 1.359.324t.929.874.337 1.223q0 .48-.175.942-.17.456-.596 1.018-.423.558-1.172 1.364L572.45.188v.068h4.057v.938zm8.032-6.545 1.568 2.676 1.569-2.676h1.159l-2.114 3.272 2.114 3.273h-1.159l-1.569-2.54-1.568 2.54h-1.159l2.08-3.273-2.08-3.272z"/></svg>